<?xml version="1.0" encoding="UTF-8"?>
<svg width="850px" height="186px" viewBox="0 0 850 186" version="1.1" xmlns="http://www.w3.org/2000/svg" xmlns:xlink="http://www.w3.org/1999/xlink">
    <title>paradigm-logo</title>
    <defs>
        <linearGradient x1="11.2914156%" y1="0%" x2="125.635944%" y2="11.8737936%" id="linearGradient-1">
            <stop stop-color="#3D89FB" offset="0%"></stop>
            <stop stop-color="#5F49E4" stop-opacity="0.62" offset="100%"></stop>
        </linearGradient>
        <ellipse id="path-2" cx="67.5611413" cy="68.7160326" rx="67.5611413" ry="68.7160326"></ellipse>
        <radialGradient cx="49.9998521%" cy="49.9999232%" fx="49.9998521%" fy="49.9999232%" r="51.0272156%" gradientTransform="translate(0.5, 0.5), scale(1, 0.9799), rotate(90), translate(-0.5, -0.5)" id="radialGradient-4">
            <stop stop-color="#051323" offset="0%"></stop>
            <stop stop-color="#051323" stop-opacity="0" offset="100%"></stop>
        </radialGradient>
        <linearGradient x1="9.9566704%" y1="-2.62422983e-05%" x2="128.215549%" y2="12.1456378%" id="linearGradient-5">
            <stop stop-color="#3D89FB" offset="0%"></stop>
            <stop stop-color="#5F49E4" stop-opacity="0.62" offset="100%"></stop>
        </linearGradient>
    </defs>
    <g id="Logo" stroke="none" stroke-width="1" fill="none" fill-rule="evenodd">
        <g id="paradigm-logo-light-horizontal-with-circles-1024x1024" transform="translate(-87, -419)">
            <g id="paradigm-logo" transform="translate(87, 419.0312)">
                <g id="logo-/-paradigm">
                    <ellipse id="Oval" fill="url(#linearGradient-1)" fill-rule="nonzero" cx="67.5611413" cy="117.221467" rx="67.5611413" ry="68.7160326"></ellipse>
                    <g id="Clipped" transform="translate(0, 48.5054)">
                        <mask id="mask-3" fill="white">
                            <use xlink:href="#path-2"></use>
                        </mask>
                        <g id="Oval"></g>
                        <path d="M181.431033,42.8281835 C181.431033,91.7182367 142.595379,131.351448 94.6895502,131.351448 C46.7837213,131.351448 7.9485809,91.7182367 7.9485809,42.8281835 C7.9485809,-6.06168234 46.7837213,-45.6948096 94.6895502,-45.6948096 C142.595379,-45.6948096 181.431033,-6.06168234 181.431033,42.8281835 Z" id="Path" fill-opacity="0.5" fill="url(#radialGradient-4)" fill-rule="nonzero" mask="url(#mask-3)"></path>
                    </g>
                    <path d="M181.317935,68.7162667 C181.317935,106.666717 150.553027,137.432065 112.601879,137.432065 C74.6511989,137.432065 43.8858696,106.666717 43.8858696,68.7162667 C43.8858696,30.7652541 74.6511989,0 112.601879,0 C150.553027,0 181.317935,30.7652541 181.317935,68.7162667 Z" id="Path" fill="url(#linearGradient-5)" fill-rule="nonzero"></path>
                </g>
                <path d="M298.235706,71.0150618 C296.103235,67.5169616 293.067965,64.8117641 289.114332,62.8994693 C285.160699,61.0027217 280.568881,60.0543478 275.354443,60.0543478 L248.30163,60.0543478 L248.30163,71.6369463 L262.590746,71.6369463 L262.590746,71.6213992 L275.696884,71.6213992 C279.214683,71.6835876 281.98534,72.7563383 283.993287,74.8551985 C285.985669,76.9540586 286.997426,79.6903503 286.997426,83.0796207 C286.997426,86.3911556 286.001235,88.9253348 284.008853,90.6977056 C282.032036,92.4856235 279.136856,93.3718089 275.354443,93.3718089 L248.30163,93.3718089 L248.30163,129.347826 L262.590746,129.347826 L262.590746,104.93886 L275.120961,104.93886 C283.355102,104.93886 289.799213,102.979924 294.453293,99.0620519 C299.107373,95.1441796 301.42663,89.780426 301.42663,82.9863381 C301.42663,78.5243169 300.368177,74.5287091 298.235706,71.0150618 M446.228113,100.368009 C450.59621,98.4868087 453.839685,95.9837237 455.991136,92.8121128 C458.126287,89.6560491 459.202013,85.7226298 459.202013,80.9963077 C459.202013,74.3265967 456.871275,69.1649555 452.226097,65.5269313 C447.56462,61.8733599 440.947279,60.0543478 432.357775,60.0543478 L405.366848,60.0543478 L405.366848,71.6369463 L420.32921,71.6369463 L420.32921,71.6213992 L432.357775,71.6213992 C436.383596,71.6213992 439.366289,72.5542259 441.322153,74.4198793 C443.261719,76.3010799 444.239651,78.8663534 444.239651,82.1312469 C444.239651,85.333952 443.212822,87.8525841 441.142866,89.6715962 C439.545577,91.0863834 437.443022,91.9570217 434.818904,92.2524168 C434.052858,92.3612466 433.254213,92.4078879 432.406672,92.4078879 L405.366848,92.4078879 L405.366848,129.347826 L420.32921,129.347826 L420.32921,103.974939 L432.259982,103.974939 L445.885837,129.347826 L461.956522,129.347826 L461.956522,128.6793 L446.228113,100.368009 Z M624.192318,75.8777576 C621.495538,70.8260796 617.738752,66.9246299 612.906373,64.1734083 C608.089581,61.4377304 602.633669,60.0543478 596.523047,60.0543478 L575.13587,60.0543478 L575.13587,71.6188045 L596.523047,71.6188045 C602.150431,71.6188045 606.437219,73.4374086 609.352235,77.0746167 C612.28284,80.7118249 613.748142,86.0432881 613.748142,93.08455 L613.748142,96.7528454 C613.685789,103.529866 612.173722,108.752524 609.211941,112.405275 C606.250159,116.058027 601.978959,117.876631 596.382752,117.876631 L575.13587,117.876631 L575.13587,129.347826 L596.663342,129.347826 C602.742787,129.316739 608.1987,127.917813 613.031079,125.151047 C617.863459,122.399826 621.620245,118.51392 624.270259,113.493329 C626.920274,108.488282 628.26087,102.768228 628.26087,96.3176239 L628.26087,93.1311809 C628.26087,86.6961203 626.904686,80.9449792 624.192318,75.8777576 M653.668478,129.347826 L668.682065,129.347826 L668.682065,60.0543478 L653.668478,60.0543478 L653.668478,129.347826 Z M738.690007,98.5334097 L738.690007,114.37055 C736.40277,116.668733 732.575149,117.810008 727.222702,117.810008 C721.885815,117.810008 717.824802,115.949574 715.070781,112.213072 C712.301202,108.47657 710.931971,102.957803 710.931971,95.6567721 L710.931971,91.2011107 C710.96309,83.9626151 712.238964,78.5063841 714.790712,74.8324176 C717.3269,71.1584512 721.030046,69.3292849 725.88459,69.3292849 C729.696653,69.3292849 732.684065,70.251685 734.862386,72.1121191 C737.040707,73.9569193 737.585287,75.3014346 739.125672,78.1624383 L751.137557,73.3940989 C750.017278,70.564363 748.150145,66.6558881 744.742629,63.6541793 C740.183713,59.6206332 733.679869,57.7445652 725.448926,57.7445652 C719.551899,57.7445652 714.386166,59.0890806 709.998405,61.7937453 C705.595084,64.482776 702.234246,68.375617 699.90033,73.4722684 C697.566414,78.5532858 696.399457,84.5879711 696.399457,91.5294226 L696.399457,96.2821281 C696.461694,103.035973 697.722009,108.929953 700.1804,113.932801 C702.638791,118.951283 706.139664,122.765954 710.667461,125.392449 C715.179697,128.034579 720.454347,129.347826 726.46029,129.347826 C732.170603,129.347826 737.383015,128.487962 742.081965,126.783867 C746.780915,125.079771 750.406264,122.687785 752.98913,119.592273 L752.98913,98.642847 L738.690007,98.5334097 Z M352.513782,60.0543478 L339.108586,60.0543478 L312.975543,129.347826 L328.349775,129.347826 L333.185727,115.075577 L333.201479,115.075577 L337.092294,103.508526 L345.81906,77.560396 L354.640341,103.508526 L354.608836,103.508526 L358.531155,115.075577 L358.546908,115.075577 L363.414364,129.347826 L378.804348,129.347826 L352.513782,60.0543478 Z M524.592586,60.0543478 L511.187391,60.0543478 L485.054348,129.347826 L500.444332,129.347826 L505.264531,115.075577 L505.280283,115.075577 L509.171098,103.508526 L517.897865,77.560396 L526.719145,103.508526 L526.68764,103.508526 L530.60996,115.075577 L530.625712,115.075577 L535.493168,129.347826 L550.883152,129.347826 L524.592586,60.0543478 Z M850,60.0543478 L850,129.347826 L835.303399,129.347826 L835.303399,77.0939826 L815.275677,129.347826 L801.651703,129.347826 L774.932065,60.0543478 L790.573219,60.0543478 L795.520115,74.3265967 L795.536124,74.3265967 L799.522457,85.893648 L799.490438,85.893648 L808.455685,111.841778 L817.324876,85.893648 L821.279191,74.3265967 L821.2952,74.3265967 L826.210077,60.0543478 L850,60.0543478 Z" id="Combined-Shape" fill="#FFFFFF"></path>
            </g>
        </g>
    </g>
</svg>