<?xml version="1.0" encoding="utf-8"?>
<!-- Generator: Adobe Illustrator 28.0.0, SVG Export Plug-In . SVG Version: 6.00 Build 0)  -->
<svg version="1.1" id="Layer_1" xmlns="http://www.w3.org/2000/svg" xmlns:xlink="http://www.w3.org/1999/xlink" x="0px" y="0px"
	 viewBox="0 0 1280 1024" style="enable-background:new 0 0 1280 1024;" xml:space="preserve">
<style type="text/css">
	.st0{fill:#FFFFFF;}
</style>
<g>
	<path class="st0" d="M596.55,449.04c0-48.71,38.84-88.61,90.67-92.89c61.15-5.05,110.31,45.2,102.9,105.18
		c-4.97,40.23-41.17,73.79-85.25,79.05c-50.44,6.01-98.68-28.65-106.81-76.86C597.24,458.75,597.03,453.87,596.55,449.04z
		 M754.24,448.97c0.09-34.35-26.52-61.65-60.06-61.62c-33.85,0.03-60.63,26.21-60.99,59.61c-0.36,33.68,27,62.81,59.21,63.04
		C726.88,510.24,754.15,483.33,754.24,448.97z"/>
	<path class="st0" d="M820.66,356.9c41.37,37.27,82.74,74.54,124.1,111.81c0.76-0.42,1.53-0.83,2.29-1.25c0-35.24,0-70.49,0-106.71
		c11.64,0,22.11,0,33.14,0c0,60.37,0,120.19,0,180c-0.7,0.37-1.4,0.73-2.11,1.1c-41.39-36.3-82.78-72.6-126.14-110.63
		c0,36.09,0,70.08,0,104.95c-12.09,0-22.59,0-33.78,0c0-59.72,0-118.95,0-178.18C819.01,357.63,819.83,357.27,820.66,356.9z"/>
	<path class="st0" d="M461.6,543.6c-14.09,0-25.43,0-38.13,0c-7-15.18-14.22-30.84-21.6-46.85c-19.73,0-39.08,0-59.7,0
		c-6.81,15.25-13.85,30.99-20.95,46.88c-12.27,0-23.93,0-38.05,0c29.61-62.34,58.52-123.21,87.43-184.08c0.9-0.1,1.81-0.2,2.71-0.3
		C402.39,419.96,431.46,480.66,461.6,543.6z M372.62,431.18c-0.82,0.03-1.64,0.06-2.46,0.09c-5.1,11.95-10.2,23.9-15.75,36.89
		c12.15,0,22.56,0,34.51,0C383.1,454.96,377.86,443.07,372.62,431.18z"/>
	<path class="st0" d="M561.56,360.21c12.6,0,23.97,0,38.26,0c-29.7,62.56-58.69,123.64-87.68,184.71c-0.86,0.04-1.72,0.09-2.58,0.14
		c-29.13-60.83-58.26-121.66-88.21-184.19c13.53,0,25,0,38.26,0c16.57,36.55,33.57,74.06,50.58,111.58
		c0.78,0.15,1.56,0.29,2.34,0.44C528.77,435.55,545.02,398.21,561.56,360.21z"/>
	<path class="st0" d="M470.86,563.58c23.91,21.46,45.91,41.2,69.9,62.73c0-20.98,0-39.45,0-58.86c6.63,0,11.94,0,18.4,0
		c0,32.22,0,64.45,0,99.6c-23.92-20.77-45.91-39.87-69.88-60.68c0,20.31,0,37.82,0,56.39c-6.63,0-12.2,0-18.42,0
		C470.86,630.45,470.86,598.47,470.86,563.58z"/>
	<path class="st0" d="M831.81,662.66c-9.65,0-17.06,0-25.72,0c-7.64-10.39-15.79-21.45-23.93-32.52c-0.76,0.18-1.52,0.36-2.28,0.54
		c0,10.49,0,20.97,0,32.28c-6.81,0-12.14,0-18.53,0c0-31.83,0-63.45,0-97.22c14.13,0.98,27.67,0.75,40.74,3.14
		c14.11,2.58,21.22,11.44,22.68,23.81c1.61,13.66-3.73,23.98-16.05,31.06c-1.45,0.84-2.84,1.78-5.11,3.21
		C812.81,638.6,821.69,649.85,831.81,662.66z M780.43,609.47c8.86,1.37,17.09,1.44,21.92-6.2c1.94-3.08,1.97-9.43,0.03-12.48
		c-4.88-7.67-13.15-7.33-21.95-5.94C780.43,593.15,780.43,601.19,780.43,609.47z"/>
	<path class="st0" d="M664.03,567.02c6.03,0,11.11,0,17.43,0c0.36,4.19,0.96,8.15,1.01,12.12c0.22,15.97-0.21,31.96,0.52,47.9
		c0.73,15.8,8,21.95,23.29,21.32c12.61-0.52,19.23-6.15,19.98-19.28c0.93-16.27,0.52-32.61,0.77-48.92
		c0.06-4.07,0.41-8.13,0.66-12.9c6.22,0,11.54,0,18.57,0c0,6.98,0.01,13.44,0,19.9c-0.02,14.23,0.29,28.48-0.13,42.7
		c-0.67,22.73-13.24,35.22-35.94,35.91c-6.56,0.2-13.29,0.18-19.69-1.04c-14.32-2.73-25.14-11.31-26.08-25.97
		C662.94,615.35,664.03,591.78,664.03,567.02z"/>
	<path class="st0" d="M448.52,583.97c-12.96,0-24.71,0-37.37,0c0,6.45,0,12.12,0,19.26c9.55,0,19.05,0,29.53,0
		c0,6.35,0,11.27,0,17.53c-9.64,0-19.2,0-29.61,0c0,8.7,0,16.13,0,24.85c13.56,0,26.9,0,41.48,0c0.35,6.12,0.63,11.03,0.97,17.03
		c-21.03,0-40.91,0-61.76,0c0-31.49,0-62.83,0-95.13c18.84,0,37.33,0,56.75,0C448.52,572.63,448.52,577.53,448.52,583.97z"/>
	<path class="st0" d="M863.08,583.81c0,6.89,0,12.31,0,19.46c9.79,0,19.56,0,30.11,0c0,6.36,0,11.03,0,17.34
		c-9.64,0-19.45,0-29.97,0c0,9,0,16.42,0,25.05c13.69,0,27.08,0,41.69,0c0.35,6.05,0.63,10.96,0.97,16.98c-21.06,0-40.93,0-61.84,0
		c0-31.44,0-62.76,0-95.09c18.73,0,37.24,0,56.78,0c0,4.96,0,9.85,0,16.26C888.17,583.81,875.9,583.81,863.08,583.81z"/>
	<path class="st0" d="M917.4,651.62c3.3-4.54,6.25-8.6,8.74-12.03c8.35,3.07,15.52,6.56,23.1,8.23c6.48,1.43,13.91,0.84,16.53-7.07
		c2.49-7.53-2.11-12.6-8.2-16.18c-5.98-3.51-12.32-6.41-18.27-9.97c-12.54-7.5-17.41-17.48-14.7-29.3
		c2.61-11.37,12.32-19.38,25.73-20.87c12.33-1.38,23.32,1.54,33.13,11.36c-2.61,4.3-5.19,8.56-8.13,13.41
		c-3.38-1.86-5.88-3.76-8.71-4.66c-4.2-1.33-8.73-2.98-12.91-2.53c-3.15,0.33-7.59,3.2-8.47,5.91c-0.86,2.65,1.32,7.2,3.54,9.69
		c2.4,2.7,6.36,4.04,9.71,5.86c4.57,2.48,9.4,4.54,13.78,7.33c10.96,6.98,16.23,17.11,14.4,30.08
		c-1.82,12.93-10.69,20.14-22.47,23.29C946.82,668.8,931.45,664.39,917.4,651.62z"/>
	<path class="st0" d="M331.09,666.96c-15.65-32.63-31.31-65.26-47.72-99.46c8.18,0,14.47,0,21.66,0
		c8.85,19.53,17.82,39.31,27.85,61.44c9.59-22.19,18.18-42.05,26.72-61.82c7.24,0,13.35,0,21.68,0
		c-16.17,34.09-31.69,66.82-47.21,99.55C333.08,666.77,332.09,666.86,331.09,666.96z"/>
	<path class="st0" d="M602,584.06c-9.78,0-17.97,0-27.1,0c0-5.98,0-10.88,0-16.65c24.65,0,49.03,0,74.23,0c0,5.15,0,9.82,0,15.83
		c-8.33,0.39-16.77,0.8-26.89,1.28c0,26.01,0,51.77,0,78.4c-7.33,0-12.96,0-20.24,0C602,636.69,602,610.91,602,584.06z"/>
</g>
</svg>
