<?xml version="1.0" encoding="UTF-8"?>
<svg width="195px" height="34px" viewBox="0 0 195 34" version="1.1" xmlns="http://www.w3.org/2000/svg" xmlns:xlink="http://www.w3.org/1999/xlink">
    <title>The Team _ CMT Digital-0</title>
    <defs>
        <linearGradient x1="50.0891266%" y1="100.142857%" x2="50.0891266%" y2="0.5%" id="linearGradient-1">
            <stop stop-color="#B1B3B5" offset="0%"></stop>
            <stop stop-color="#FFFFFF" offset="100%"></stop>
        </linearGradient>
        <linearGradient x1="50.0891266%" y1="100.142857%" x2="50.0891266%" y2="0.5%" id="linearGradient-2">
            <stop stop-color="#D8D8D8" offset="0%"></stop>
            <stop stop-color="#D8D8D8" offset="100%"></stop>
        </linearGradient>
        <linearGradient x1="-54.9701789%" y1="99.7142858%" x2="-54.9701789%" y2="0.0714730379%" id="linearGradient-3">
            <stop stop-color="#B1B3B5" offset="0%"></stop>
            <stop stop-color="#FFFFFF" offset="100%"></stop>
        </linearGradient>
        <linearGradient x1="-54.9701789%" y1="99.7142858%" x2="-54.9701789%" y2="0.0714730379%" id="linearGradient-4">
            <stop stop-color="#D8D8D8" offset="0%"></stop>
            <stop stop-color="#D8D8D8" offset="100%"></stop>
        </linearGradient>
        <linearGradient x1="-208.349027%" y1="100%" x2="-208.349027%" y2="0%" id="linearGradient-5">
            <stop stop-color="#B1B3B5" offset="0%"></stop>
            <stop stop-color="#FFFFFF" offset="100%"></stop>
        </linearGradient>
        <linearGradient x1="-208.349027%" y1="100%" x2="-208.349027%" y2="0%" id="linearGradient-6">
            <stop stop-color="#D8D8D8" offset="0%"></stop>
            <stop stop-color="#D8D8D8" offset="100%"></stop>
        </linearGradient>
        <linearGradient x1="50.0773004%" y1="-20.8911965%" x2="50.0773004%" y2="99.9975828%" id="linearGradient-7">
            <stop stop-color="#FFFFFF" offset="0%"></stop>
            <stop stop-color="#B1B3B5" offset="100%"></stop>
        </linearGradient>
        <linearGradient x1="50.0773004%" y1="-20.8911965%" x2="50.0773004%" y2="99.9975828%" id="linearGradient-8">
            <stop stop-color="#D8D8D8" offset="0%"></stop>
            <stop stop-color="#D8D8D8" offset="100%"></stop>
        </linearGradient>
        <linearGradient x1="171.000855%" y1="293.005796%" x2="171.000855%" y2="121.840452%" id="linearGradient-9">
            <stop stop-color="#B1B3B5" offset="0%"></stop>
            <stop stop-color="#FFFFFF" offset="100%"></stop>
        </linearGradient>
        <linearGradient x1="171.000855%" y1="293.005796%" x2="171.000855%" y2="121.840452%" id="linearGradient-10">
            <stop stop-color="#D8D8D8" offset="0%"></stop>
            <stop stop-color="#D8D8D8" offset="100%"></stop>
        </linearGradient>
    </defs>
    <g id="futures-/-order-input-edits" stroke="none" stroke-width="1" fill="none" fill-rule="evenodd">
        <g id="The-Team-_-CMT-Digital-0" fill-rule="nonzero">
            <path d="M50.8800107,12.7700143 L40.4400107,12.7700143 C37.2600107,12.7700143 36.8800107,14.2400143 36.8800107,16.9100143 C36.8800107,19.5800143 37.2600107,21.0000143 40.4400107,21.0000143 L50.8800107,21.0000143 L50.8800107,23.8600143 L40.4400107,23.8600143 C35.6800107,23.8600143 34.0500107,21.4700143 34.0500107,16.8600143 C34.0500107,12.2500143 35.6800107,9.86001432 40.4400107,9.86001432 L50.8800107,9.86001432 L50.8800107,12.7700143 Z" id="Path" fill="url(#linearGradient-2)"></path>
            <path d="M56.2500107,13.0000143 L56.2500107,23.8800143 L53.5400107,23.8800143 L53.5400107,9.93001432 L56.2300107,9.93001432 C56.9999724,9.9261018 57.7132442,10.3342306 58.1000107,11.0000143 L63.6000107,18.1200143 L69.1000107,11.0000143 C69.4842285,10.3303813 70.197982,9.91816001 70.9700107,9.92000809 L73.6600107,9.92000809 L73.6600107,23.9200081 L70.9500107,23.9200081 L70.9500107,13.0000143 L64.6600107,21.0000143 L62.5400107,21.0000143 L56.2500107,13.0000143 Z" id="Path" fill="url(#linearGradient-4)"></path>
            <polygon id="Path" fill="url(#linearGradient-6)" points="82.2500107 23.8800143 82.2500107 12.5600143 75.6700107 12.5600143 75.6700107 9.93001432 91.6000107 9.93001432 91.6000107 12.5600143 85.0200107 12.5600143 85.0200107 23.8800143"></polygon>
            <path d="M17.0100107,10.6300143 L25.8800107,10.6300143 L25.8800107,13.0000143 L17.0100107,13.0000143 C15.6059569,13.0000143 14.3085577,13.7490681 13.6065308,14.9650143 C12.9045039,16.1809605 12.9045039,17.6790681 13.6065308,18.8950143 C14.3085577,20.1109606 15.6059569,20.8600144 17.0100107,20.8600143 L20.6100107,20.8600143 L20.6100107,23.2100143 L17.0100107,23.2100143 C13.5416625,23.2100143 10.7300107,20.3983626 10.7300107,16.9300143 C10.7300107,13.4616661 13.5416625,10.6500143 17.0100107,10.6500143" id="Path" fill="#D8D8D8"></path>
            <path d="M1.19001071,10.7600143 L7.12001071,10.7600143 C9.31954585,7.31846726 13.1256379,5.24001659 17.2100107,5.24997842 L20.6100107,5.24997842 L20.6100107,7.86001432 L17.2100107,7.86001432 C13.5326642,7.84159981 10.1944532,10.0055461 8.71001071,13.3700143 L3.13001071,13.3700143 C2.82489694,14.5255141 2.66698008,15.7149304 2.66001071,16.9100143 C2.75339432,24.8584152 9.26138928,31.2322247 17.2100107,31.1600143 L23.2100107,31.1600143 L23.2100107,28.5600143 L17.2100107,28.5600143 C10.7100486,28.6211162 5.38691054,23.4098087 5.31001071,16.9100143 C5.31001071,16.5900143 5.31001071,16.2800143 5.31001071,15.9800143 L7.98001071,15.9800143 C7.98001071,16.2800143 7.93001071,16.5900143 7.93001071,16.9100143 C8.01223023,21.9399843 12.1396189,25.960168 17.1700107,25.9100143 L25.8800107,25.9100143 L25.8800107,33.7300143 L17.2100107,33.7300143 C7.82261628,33.81348 0.131706698,26.296856 7.10542736e-15,16.9100143 C-0.00239810052,14.8025733 0.401646449,12.7144439 1.19001071,10.7600143" id="Path" fill="url(#linearGradient-8)"></path>
            <path d="M23.2500107,2.65001432 L25.8800107,2.65001432 L25.8800107,0 L17.2100107,0 C11.2278013,-0.0076661642 5.6656374,3.0740222 2.50001071,8.15001432 L5.76001071,8.15001432 C8.53737674,4.66543677 12.75401,2.63997974 17.2100107,2.65001432 L23.2100107,2.65001432 L23.2500107,2.65001432 Z" id="Path" fill="url(#linearGradient-10)"></path>
            <rect id="Rectangle" fill="#D8D8D8" x="23.2600107" y="5.25001432" width="2.65" height="2.61"></rect>
            <rect id="Rectangle" fill="#D8D8D8" x="23.2600107" y="20.7300143" width="2.65" height="2.61"></rect>
            <path d="M93.7700107,10.1400143 L105.320011,10.1400143 C110.320011,10.1400143 112.080011,12.5400143 112.080011,17.1400143 C112.080011,21.7400143 110.350011,24.1400143 105.320011,24.1400143 L93.7700107,24.1400143 L93.7700107,10.1400143 Z M105.320011,13.0000143 L96.7100107,13.0000143 L96.7100107,21.3000143 L105.320011,21.3000143 C108.670011,21.3000143 109.080011,19.8500143 109.080011,17.1600143 C109.080011,14.4700143 108.670011,13.0000143 105.320011,13.0000143 Z" id="Shape" fill="#D8D8D8"></path>
            <polygon id="Path" fill="#D8D8D8" points="117.050011 10.1400143 117.050011 24.1400143 114.110011 24.1400143 114.110011 10.1400143"></polygon>
            <path d="M136.990011,16.5200143 L136.990011,24.1700143 L125.880011,24.1700143 C120.880011,24.1700143 119.120011,21.7500143 119.120011,17.1700143 C119.120011,12.5900143 120.840011,10.1700143 125.880011,10.1700143 L136.880011,10.1700143 L136.880011,13.0000143 L125.880011,13.0000143 C122.530011,13.0000143 122.120011,14.4600143 122.120011,17.1400143 C122.120011,19.8200143 122.530011,21.3000143 125.880011,21.3000143 L134.080011,21.3000143 L134.080011,16.5200143 L136.990011,16.5200143 Z" id="Path" fill="#D8D8D8"></path>
            <polygon id="Path" fill="#D8D8D8" points="142.250011 10.1400143 142.250011 24.1400143 139.310011 24.1400143 139.310011 10.1400143"></polygon>
            <polygon id="Path" fill="#D8D8D8" points="150.550011 24.1700143 150.550011 12.7800143 143.550011 12.7800143 143.550011 10.1400143 160.480011 10.1400143 160.480011 12.7800143 153.480011 12.7800143 153.480011 24.1700143"></polygon>
            <path d="M178.320011,24.1700143 L175.150011,24.1700143 L173.360011,20.7000143 L163.000011,20.7000143 L161.220011,24.1700143 L158.070011,24.1700143 L163.880011,12.9100143 C164.760011,11.1600143 165.880011,9.91001432 168.230011,9.91001432 C170.580011,9.91001432 171.690011,11.1400143 172.590011,12.9100143 L178.320011,24.1700143 Z M169.640011,13.5000143 C169.388645,12.9171899 168.81473,12.5396968 168.180011,12.5396968 C167.545291,12.5396968 166.971377,12.9171899 166.720011,13.5000143 L164.340011,18.1000143 L172.010011,18.1000143 L169.640011,13.5000143 Z" id="Shape" fill="#D8D8D8"></path>
            <path d="M181.670011,10.1400143 L181.670011,18.3600143 C181.670011,20.6600143 182.550011,21.2900143 185.510011,21.2900143 L194.880011,21.2900143 L194.880011,24.1700143 L185.510011,24.1700143 C180.860011,24.1700143 178.730011,22.5700143 178.730011,18.3600143 L178.730011,10.1400143 L181.670011,10.1400143 Z" id="Path" fill="#D8D8D8"></path>
        </g>
    </g>
</svg>