<?xml version="1.0" encoding="UTF-8"?>
<svg width="543px" height="450px" viewBox="0 0 543 450" version="1.1" xmlns="http://www.w3.org/2000/svg" xmlns:xlink="http://www.w3.org/1999/xlink">
    <title>Logo</title>
    <g id="Paradex-Landing-" stroke="none" stroke-width="1" fill="none" fill-rule="evenodd">
        <g id="Logo" transform="translate(0, -0)" fill="#FFFFFF" fill-rule="nonzero">
            <path d="M37.3284188,193.722069 C183.088573,130.216685 280.284839,88.3500492 328.917216,68.1221612 C467.772535,10.3674302 496.625481,0.334815206 515.431427,0 C519.567621,-0.0693297939 528.815839,0.955743206 534.806446,5.81670721 C539.864797,9.92121021 541.256552,15.4658102 541.922551,19.3573292 C542.588551,23.2488482 543.417879,32.1138282 542.758626,39.0406662 C535.234007,118.102486 502.675104,309.964674 486.110982,398.515267 C479.10208,435.984342 465.301336,448.547532 451.940618,449.777006 C422.904684,452.448938 400.856115,430.588035 372.733393,412.153237 C328.726886,383.306416 303.866009,365.349181 261.150074,337.200013 C211.78442,304.66878 243.786119,286.789048 271.919462,257.568563 C279.282091,249.921423 407.21508,133.556479 409.691227,123.000355 C410.00091,121.680135 410.288312,116.758981 407.36474,114.160431 C404.441168,111.561881 400.126229,112.450484 397.012448,113.157198 C392.598758,114.158943 322.297793,160.625274 186.109553,252.556189 C166.154858,266.258623 148.080515,272.934908 131.886524,272.585046 C114.033948,272.199351 79.6927538,262.490928 54.1636058,254.192408 C22.8510668,244.013936 -2.03551616,238.632504 0.131546836,221.346309 C1.26028684,212.342589 13.6592438,203.134509 37.3284188,193.722069 Z" id="Path-3"></path>
        </g>
    </g>
</svg>