<?xml version="1.0" encoding="UTF-8"?>
<svg width="836px" height="114px" viewBox="0 0 836 114" version="1.1" xmlns="http://www.w3.org/2000/svg" xmlns:xlink="http://www.w3.org/1999/xlink">
    <title>paradex-white</title>
    <g id="New-Logos" stroke="none" stroke-width="1" fill="none" fill-rule="evenodd">
        <g id="Dark_1080x1080" transform="translate(-122, -183)" fill="#FFFFFF">
            <g id="paradex-white" transform="translate(122.2947, 183)">
                <path d="M94.6678094,15.1179294 C93.2804251,13.1247857 91.6650668,11.27494 89.8477888,9.60095989 C83.3993829,3.66712376 74.5149126,0.00651354131 64.6729517,0.00651354131 L0,0.00651354131 L7.88789853,13.7370586 C9.6335276,16.7723689 12.8642441,18.6417552 16.3620158,18.6417552 L35.2903668,18.6417552 L64.6794652,18.6091875 C68.9393212,18.6091875 72.7823106,20.1919781 75.5570792,22.7648269 C78.3448749,25.3181351 80.0709633,28.8615015 80.0709633,32.7631128 C80.0709633,40.5858759 73.1861502,46.9300651 64.6794652,46.9300651 L55.3651011,46.8974974 L12.1347275,46.8974974 L20.022626,60.6280425 C21.7682551,63.6633528 24.9989715,65.5327391 28.4967432,65.5327391 L32.3267055,65.5327391 C33.9681179,65.5327391 35.2968804,66.8615015 35.2968804,68.502914 L35.2968804,114 L50.4669181,102.288653 C52.8639013,100.438807 54.2643126,97.5793624 54.2643126,94.5570792 L54.2643126,68.5094275 C54.2643126,66.8680151 55.5930751,65.5392527 57.2344875,65.5392527 L64.6794652,65.5392527 C78.8268769,65.5392527 91.0397669,57.9444635 96.7781968,46.9365787 C99.018855,42.6506685 100.275968,37.843675 100.275968,32.7696263 C100.275968,26.2691121 98.2176894,20.2245458 94.6743229,15.1309565 L94.6678094,15.1179294 Z" id="Path"></path>
                <polygon id="Vector" fill-rule="nonzero" points="835.410613 0.00651354131 811.890215 0.00651354131 789.933067 32.958519 767.975919 0.00651354131 744.455522 0.00651354131 778.176125 50.6037024 744.455522 101.207405 767.975919 101.207405 789.933067 68.2488858 811.890215 101.207405 835.410613 101.207405 801.690009 50.6037024"></polygon>
                <path d="M633.673211,101.207405 L703.719834,101.207405 L703.719834,82.5786767 L633.673211,82.5786767 L633.673211,101.207405 Z M633.673211,18.6352417 L703.576536,18.6352417 L703.576536,0.00651354131 L633.673211,0.00651354131 L633.673211,18.6352417 L633.673211,18.6352417 Z M633.608076,59.9180665 L677.072937,59.9180665 L677.072937,41.2893384 L633.608076,41.2893384 L633.608076,59.9180665 Z" id="Vector1"></path>
                <path d="M595.712292,50.6037024 C595.712292,64.5882756 589.817537,77.2310593 580.281713,86.3825848 C570.745889,95.5471375 557.575508,101.207405 543.037284,101.207405 L515.185381,101.207405 L515.185381,82.5786767 L543.037284,82.5786767 C561.425011,82.5786767 576.32148,68.2619129 576.32148,50.6037024 C576.32148,41.7713404 572.595734,33.7857388 566.570709,27.9952005 C560.545683,22.2111759 552.227891,18.6287281 543.037284,18.6287281 L515.185381,18.6287281 L515.185381,0 L543.037284,0 C572.120246,0 595.712292,22.6475831 595.712292,50.6037024 Z" id="Vector2" fill-rule="nonzero"></path>
                <polygon id="Vector3" fill-rule="nonzero" points="475.394157 101.200891 437.394157 0.00651354131 413.945409 0.00651354131 413.951922 0.00651354131 413.919354 0.00651354131 375.919354 101.207405 399.36159 101.207405 425.656756 31.1868358 451.951922 101.200891"></polygon>
                <path d="M312.868275,63.943435 L338.017058,101.207405 L314.197037,101.207405 L290.136015,65.5262256 L257.483633,65.5262256 L257.483633,46.9300651 L301.684524,46.9300651 C310.360561,46.9300651 317.388672,40.5793624 317.388672,32.7565992 C317.388672,28.854988 315.643043,25.3181351 312.796626,22.7713404 C309.963235,20.1919781 306.042083,18.6091875 301.691038,18.6091875 L257.490146,18.6091875 L257.490146,0.0130270826 L301.691038,0.0130270826 C311.741432,0.0130270826 320.801768,3.68015084 327.386958,9.61398697 C329.23029,11.2814535 330.878216,13.1378128 332.298168,15.1244429 C335.919697,20.2245458 338.023571,26.2691121 338.023571,32.7565992 C338.023571,37.8371615 336.73389,42.6311279 334.447637,46.9300651 C330.181267,54.9482345 322.397585,61.17518 312.874788,63.943435 L312.868275,63.943435 Z" id="Vector4" fill-rule="nonzero"></path>
                <polygon id="Vector5" fill-rule="nonzero" points="217.698922 101.200891 179.698922 0.00651354131 156.256687 0.00651354131 156.256687 0.00651354131 156.22412 0.00651354131 118.22412 101.207405 141.666355 101.207405 167.961521 31.1868358 194.256687 101.200891"></polygon>
            </g>
        </g>
    </g>
</svg>