<?xml version="1.0" encoding="UTF-8"?>
<svg width="1363px" height="189px" viewBox="0 0 1363 189" version="1.1" xmlns="http://www.w3.org/2000/svg" xmlns:xlink="http://www.w3.org/1999/xlink">
    <title>paradex-white</title>
    <g id="Paradex-Landing-2" stroke="none" stroke-width="1" fill="none" fill-rule="evenodd">
        <g id="web-new-3" transform="translate(-36, -7671)" stroke="#302F38">
            <g id="paradex-white" transform="translate(37.4357, 7672)">
                <path d="M154.458005,24.6660953 C152.194378,21.4141241 149.558793,18.3959547 146.593761,15.664724 C136.072677,5.98320192 121.576963,0.0106273569 105.519026,0.0106273569 L0,0.0106273569 L12.8697292,22.4130956 C15.7178608,27.3654439 20.9890298,30.4154954 26.6959205,30.4154954 L57.5790195,30.4154954 L105.529654,30.3623586 C112.479945,30.3623586 118.750086,32.9448063 123.27734,37.1426123 C127.825848,41.3085362 130.642098,47.0898183 130.642098,53.4556051 C130.642098,66.2190607 119.408982,76.5701063 105.529654,76.5701063 L90.3325334,76.5169695 L19.7987659,76.5169695 L32.668495,98.9194378 C35.5166267,103.871786 40.7877957,106.921838 46.4946863,106.921838 L52.7435722,106.921838 C55.4216661,106.921838 57.5896469,109.089818 57.5896469,111.767912 L57.5896469,186 L82.3407611,166.892012 C86.2516284,163.873843 88.5365101,159.208433 88.5365101,154.27734 L88.5365101,111.77854 C88.5365101,109.100446 90.7044909,106.932465 93.3825848,106.932465 L105.529654,106.932465 C128.612273,106.932465 148.538567,94.5409667 157.901268,76.5807336 C161.557079,69.5879328 163.608159,61.7449434 163.608159,53.4662324 C163.608159,42.8601303 160.249914,32.9979431 154.468632,24.68735 L154.458005,24.6660953 Z" id="Path"></path>
                <polygon id="Vector" fill-rule="nonzero" points="1360.52485 0.0106273569 1322.14947 0.0106273569 1286.32465 53.7744258 1250.49983 0.0106273569 1212.12444 0.0106273569 1267.14227 82.5639356 1212.12444 165.127871 1250.49983 165.127871 1286.32465 111.353445 1322.14947 165.127871 1360.52485 165.127871 1305.50703 82.5639356"></polygon>
                <path d="M1031.37436,165.127871 L1145.66095,165.127871 L1145.66095,134.73363 L1031.37436,134.73363 L1031.37436,165.127871 Z M1031.37436,30.404868 L1145.42715,30.404868 L1145.42715,0.0106273569 L1031.37436,0.0106273569 L1031.37436,30.404868 L1031.37436,30.404868 Z M1031.26808,97.7610559 L1102.18444,97.7610559 L1102.18444,67.3668152 L1031.26808,67.3668152 L1031.26808,97.7610559 Z" id="Vector1"></path>
                <path d="M969.438121,82.5639356 C969.438121,105.380871 959.820363,126.00857 944.261913,140.940007 C928.703462,155.892698 907.214947,165.127871 883.494686,165.127871 L838.052108,165.127871 L838.052108,134.73363 L883.494686,134.73363 C913.495715,134.73363 937.80048,111.3747 937.80048,82.5639356 C937.80048,68.1532396 931.721632,55.1241001 921.891327,45.6763798 C912.061022,36.2392869 898.489887,30.3942407 883.494686,30.3942407 L838.052108,30.3942407 L838.052108,0 L883.494686,0 C930.945835,0 969.438121,36.9513198 969.438121,82.5639356 Z" id="Vector2" fill-rule="nonzero"></path>
                <polygon id="Vector3" fill-rule="nonzero" points="773.129585 165.117244 711.129585 0.0106273569 672.8711 0.0106273569 672.881728 0.0106273569 672.828591 0.0106273569 610.828591 165.127871 649.076448 165.127871 691.979088 50.8837847 734.881728 165.117244"></polygon>
                <path d="M507.955776,104.328762 L548.988001,165.127871 L510.123757,165.127871 L470.866301,106.91121 L417.591361,106.91121 L417.591361,76.5701063 L489.708605,76.5701063 C503.864244,76.5701063 515.331162,66.2084333 515.331162,53.4449777 C515.331162,47.0791909 512.483031,41.3085362 507.838876,37.1532396 C503.215975,32.9448063 496.818306,30.3623586 489.719232,30.3623586 L417.601988,30.3623586 L417.601988,0.0212547137 L489.719232,0.0212547137 C506.117244,0.0212547137 520.899897,6.00445663 531.644155,15.6859787 C534.651697,18.4065821 537.340418,21.4353788 539.657182,24.6767227 C545.565992,32.9979431 548.998629,42.8601303 548.998629,53.4449777 C548.998629,61.7343161 546.894412,69.5560507 543.16421,76.5701063 C536.203291,89.6523826 523.5036,99.8121358 507.966404,104.328762 L507.955776,104.328762 Z" id="Vector4" fill-rule="nonzero"></path>
                <polygon id="Vector5" fill-rule="nonzero" points="352.679465 165.117244 290.679465 0.0106273569 252.431608 0.0106273569 252.431608 0.0106273569 252.378471 0.0106273569 190.378471 165.127871 228.626328 165.127871 271.528968 50.8837847 314.431608 165.117244"></polygon>
            </g>
        </g>
    </g>
</svg>