<?xml version="1.0" encoding="UTF-8"?>
<svg width="233px" height="36px" viewBox="0 0 233 36" version="1.1" xmlns="http://www.w3.org/2000/svg" xmlns:xlink="http://www.w3.org/1999/xlink">
    <title>Group</title>
    <defs>
        <linearGradient x1="46.659126%" y1="11.1448978%" x2="46.659126%" y2="84.4642869%" id="linearGradient-1">
            <stop stop-color="#FDDD78" offset="0%"></stop>
            <stop stop-color="#FDD34C" offset="59.4269012%"></stop>
            <stop stop-color="#FFCB23" offset="100%"></stop>
        </linearGradient>
        <polygon id="path-2" points="24.7656 4.3264 15.822 16.75 25.1832 29.8 18.9192 29.8 12.7248 20.8564 6.4956 29.8 0.6492 29.8 9.9756 16.8544 1.0668 4.3264 7.2264 4.3264 13.0728 12.748 18.9192 4.3264"></polygon>
        <path d="M36.8064,4.3264 C38.8248,4.3264 40.588,4.6744 42.096,5.3704 C43.604,6.0664 44.7698,7.0466 45.5934,8.311 C46.417,9.5754 46.8288,11.0544 46.8288,12.748 C46.8288,14.4184 46.417,15.8858 45.5934,17.1502 C44.7698,18.4146 43.604,19.389 42.096,20.0734 C40.588,20.7578 38.8248,21.1 36.8064,21.1 L33.0828,21.1 L33.0828,29.8 L28.0368,29.8 L28.0368,4.3264 L36.8064,4.3264 Z M36.2496,16.8196 C37.8272,16.8196 39.0916,16.4774 40.0428,15.793 C40.994,15.1086 41.4696,14.0936 41.4696,12.748 C41.4696,11.4024 40.994,10.3758 40.0428,9.6682 C39.0916,8.9606 37.8272,8.6068 36.2496,8.6068 L33.0828,8.6068 L33.0828,16.8196 L36.2496,16.8196 Z" id="path-3"></path>
        <path d="M19.8708,22.4224 C19.8708,24.1624 19.4242,25.6182 18.531,26.7898 C17.6378,27.9614 16.4778,28.8256 15.051,29.3824 C13.6242,29.9392 12.0988,30.2176 10.4748,30.2176 C8.1084,30.2176 5.974,29.6666 4.0716,28.5646 C2.1692,27.4626 0.9048,25.9024 0.2784,23.884 L4.3848,21.5524 C4.9416,22.8516 5.7536,23.8608 6.8208,24.58 C7.888,25.2992 9.164,25.6588 10.6488,25.6588 C11.8552,25.6588 12.8122,25.4152 13.5198,24.928 C14.2274,24.4408 14.5812,23.7332 14.5812,22.8052 C14.5812,22.0628 14.3434,21.448 13.8678,20.9608 C13.3922,20.4736 12.8006,20.0908 12.093,19.8124 C11.3854,19.534 10.4168,19.2092 9.1872,18.838 C7.54,18.3508 6.1944,17.8694 5.1504,17.3938 C4.1064,16.9182 3.2132,16.2048 2.4708,15.2536 C1.7284,14.3024 1.3572,13.0496 1.3572,11.4952 C1.3572,9.848 1.7922,8.4502 2.6622,7.3018 C3.5322,6.1534 4.6806,5.295 6.1074,4.7266 C7.5342,4.1582 9.0712,3.874 10.7184,3.874 C12.9688,3.874 14.8944,4.3844 16.4952,5.4052 C18.096,6.426 19.1284,7.8064 19.5924,9.5464 L15.486,11.878 C15.0684,10.7876 14.442,9.935 13.6068,9.3202 C12.7716,8.7054 11.7276,8.398 10.4748,8.398 C9.338,8.398 8.4158,8.659 7.7082,9.181 C7.0006,9.703 6.6468,10.3932 6.6468,11.2516 C6.6468,11.9012 6.8672,12.4406 7.308,12.8698 C7.7488,13.299 8.3114,13.647 8.9958,13.9138 C9.6802,14.1806 10.6024,14.488 11.7624,14.836 C13.4328,15.3232 14.8132,15.8162 15.9036,16.315 C16.994,16.8138 17.9278,17.5562 18.705,18.5422 C19.4822,19.5282 19.8708,20.8216 19.8708,22.4224 Z" id="path-4"></path>
        <polygon id="path-5" points="38.6628 19.0468 28.3272 19.0468 28.3272 25.3804 40.2636 25.3804 40.2636 29.8 23.2812 29.8 23.2812 4.3264 39.8808 4.3264 39.8808 8.7112 28.3272 8.7112 28.3272 14.6968 38.6628 14.6968"></polygon>
        <path d="M56.376,4.3264 L66.6768,29.8 L61.3176,29.8 L59.0904,23.9884 L49.1724,23.9884 L47.0148,29.8 L41.9688,29.8 L51.9564,4.3264 L56.376,4.3264 Z M57.4548,19.6732 L54.0444,10.7296 L50.7384,19.6732 L57.4548,19.6732 Z" id="path-6"></path>
        <path d="M86.7912,22.4224 C86.7912,24.1624 86.3446,25.6182 85.4514,26.7898 C84.5582,27.9614 83.3982,28.8256 81.9714,29.3824 C80.5446,29.9392 79.0192,30.2176 77.3952,30.2176 C75.0288,30.2176 72.8944,29.6666 70.992,28.5646 C69.0896,27.4626 67.8252,25.9024 67.1988,23.884 L71.3052,21.5524 C71.862,22.8516 72.674,23.8608 73.7412,24.58 C74.8084,25.2992 76.0844,25.6588 77.5692,25.6588 C78.7756,25.6588 79.7326,25.4152 80.4402,24.928 C81.1478,24.4408 81.5016,23.7332 81.5016,22.8052 C81.5016,22.0628 81.2638,21.448 80.7882,20.9608 C80.3126,20.4736 79.721,20.0908 79.0134,19.8124 C78.3058,19.534 77.3372,19.2092 76.1076,18.838 C74.4604,18.3508 73.1148,17.8694 72.0708,17.3938 C71.0268,16.9182 70.1336,16.2048 69.3912,15.2536 C68.6488,14.3024 68.2776,13.0496 68.2776,11.4952 C68.2776,9.848 68.7126,8.4502 69.5826,7.3018 C70.4526,6.1534 71.601,5.295 73.0278,4.7266 C74.4546,4.1582 75.9916,3.874 77.6388,3.874 C79.8892,3.874 81.8148,4.3844 83.4156,5.4052 C85.0164,6.426 86.0488,7.8064 86.5128,9.5464 L82.4064,11.878 C81.9888,10.7876 81.3624,9.935 80.5272,9.3202 C79.692,8.7054 78.648,8.398 77.3952,8.398 C76.2584,8.398 75.3362,8.659 74.6286,9.181 C73.921,9.703 73.5672,10.3932 73.5672,11.2516 C73.5672,11.9012 73.7876,12.4406 74.2284,12.8698 C74.6692,13.299 75.2318,13.647 75.9162,13.9138 C76.6006,14.1806 77.5228,14.488 78.6828,14.836 C80.3532,15.3232 81.7336,15.8162 82.824,16.315 C83.9144,16.8138 84.8482,17.5562 85.6254,18.5422 C86.4026,19.5282 86.7912,20.8216 86.7912,22.4224 Z" id="path-7"></path>
        <path d="M88.9836,17.0284 C88.9836,14.3604 89.5172,12.0288 90.5844,10.0336 C91.6516,8.0384 93.1074,6.513 94.9518,5.4574 C96.7962,4.4018 98.8552,3.874 101.1288,3.874 C103.4024,3.874 105.4614,4.4018 107.3058,5.4574 C109.1502,6.513 110.6118,8.0384 111.6906,10.0336 C112.7694,12.0288 113.3088,14.3604 113.3088,17.0284 C113.3088,19.7196 112.7694,22.0628 111.6906,24.058 C110.6118,26.0532 109.1502,27.5786 107.3058,28.6342 C105.4614,29.6898 103.4024,30.2176 101.1288,30.2176 C98.8552,30.2176 96.7962,29.6898 94.9518,28.6342 C93.1074,27.5786 91.6516,26.0532 90.5844,24.058 C89.5172,22.0628 88.9836,19.7196 88.9836,17.0284 Z M94.308,17.0284 C94.308,18.722 94.5922,20.2184 95.1606,21.5176 C95.729,22.8168 96.5294,23.8202 97.5618,24.5278 C98.5942,25.2354 99.7832,25.5892 101.1288,25.5892 C102.4744,25.5892 103.6634,25.2354 104.6958,24.5278 C105.7282,23.8202 106.5286,22.8168 107.097,21.5176 C107.6654,20.2184 107.9496,18.722 107.9496,17.0284 C107.9496,15.3348 107.6654,13.8442 107.097,12.5566 C106.5286,11.269 105.7282,10.2714 104.6958,9.5638 C103.6634,8.8562 102.4744,8.5024 101.1288,8.5024 C99.7832,8.5024 98.5942,8.8562 97.5618,9.5638 C96.5294,10.2714 95.729,11.269 95.1606,12.5566 C94.5922,13.8442 94.308,15.3348 94.308,17.0284 Z" id="path-8"></path>
        <polygon id="path-9" points="121.5216 4.3264 133.8756 21.1696 133.8756 4.3264 138.5736 4.3264 138.5736 29.8 134.4672 29.8 122.0784 12.922 122.0784 29.8 117.45 29.8 117.45 4.3264"></polygon>
        <polygon id="path-10" points="158.34 29.8 153.294 29.8 153.294 4.3264 158.34 4.3264"></polygon>
        <polygon id="path-11" points="168.7104 29.8 163.6644 29.8 163.6644 4.3264 168.7104 4.3264"></polygon>
    </defs>
    <g id="Season-Banners" stroke="none" stroke-width="1" fill="none" fill-rule="evenodd">
        <g id="xp-warzone-s2-banner-copy" transform="translate(-328, -96)">
            <g id="Group" transform="translate(328, 63.6556)" fill-rule="nonzero">
                <g transform="translate(0, 33.0575)">
                    <path d="M0,0 L52.8823529,0 L58,5.11764706 L58,34.8 L58,34.8 L5.11764706,34.8 L0,29.6823529 L0,0 L0,0 Z" id="Rectangle" fill="url(#linearGradient-1)"></path>
                    <g id="XP" transform="translate(5, 0.8814)" fill="#FFFFFF">
                        <g id="Path">
                            <use xlink:href="#path-2"></use>
                            <use xlink:href="#path-2"></use>
                        </g>
                        <g id="Shape">
                            <use xlink:href="#path-3"></use>
                            <use xlink:href="#path-3"></use>
                        </g>
                    </g>
                    <g id="SEASON-II" transform="translate(64, 0.8814)" fill="#FFFFFF">
                        <g id="Path">
                            <use xlink:href="#path-4"></use>
                            <use xlink:href="#path-4"></use>
                        </g>
                        <g id="Path">
                            <use xlink:href="#path-5"></use>
                            <use xlink:href="#path-5"></use>
                        </g>
                        <g id="Shape">
                            <use xlink:href="#path-6"></use>
                            <use xlink:href="#path-6"></use>
                        </g>
                        <g id="Path">
                            <use xlink:href="#path-7"></use>
                            <use xlink:href="#path-7"></use>
                        </g>
                        <g id="Shape">
                            <use xlink:href="#path-8"></use>
                            <use xlink:href="#path-8"></use>
                        </g>
                        <g id="Path">
                            <use xlink:href="#path-9"></use>
                            <use xlink:href="#path-9"></use>
                        </g>
                        <g id="Path">
                            <use xlink:href="#path-10"></use>
                            <use xlink:href="#path-10"></use>
                        </g>
                        <g id="Path">
                            <use xlink:href="#path-11"></use>
                            <use xlink:href="#path-11"></use>
                        </g>
                    </g>
                </g>
            </g>
        </g>
    </g>
</svg>